# xmcd
#
# Track frame offsets:
#	150
#	11450
#	22762
#	33725
#	44787
#	57400
#	70162
#	85712
#	95787
#	108862
#	120637
#	134062
#	147500
#	163225
#	174675
#	186712
#
# Disc length: 2623 seconds
#
# Revision: 1
# Processed by: cddbd v1.4PL0 Copyright (c) Steve Scherf et al.
# Submitted via: audiograbber 1.80
#
DISCID=f00a3d10
DTITLE=Howlin' Wolf -  Castle Masters Collection Howlin' Wolf
DYEAR=1900
DGENRE=
TTITLE0=Red Rooster
TTITLE1=You'll Be Mine
TTITLE2=Who's Been Talkin'
TTITLE3=Wang Dang Doodle
TTITLE4=Little Baby
TTITLE5=Spooful
TTITLE6=Goin' Down Slow
TTITLE7=Down in the Bottom
TTITLE8=Black Door Man
TTITLE9=Howlin' for my Baby
TTITLE10=Tell Me
TTITLE11=My Baby Walked Off
TTITLE12=Killing Floor
TTITLE13=My Country Sugar Mama
TTITLE14=Louise
TTITLE15=Shake for Me
EXTD=
EXTT0=
EXTT1=
EXTT2=
EXTT3=
EXTT4=
EXTT5=
EXTT6=
EXTT7=
EXTT8=
EXTT9=
EXTT10=
EXTT11=
EXTT12=
EXTT13=
EXTT14=
EXTT15=
PLAYORDER=
